<?xml version="1.0" encoding="UTF-8" standalone="no"?>
<!DOCTYPE svg PUBLIC "-//W3C//DTD SVG 1.1//EN" "http://www.w3.org/Graphics/SVG/1.1/DTD/svg11.dtd">
<svg width="100%" height="100%" viewBox="0 0 598 598" version="1.1" xmlns="http://www.w3.org/2000/svg" xmlns:xlink="http://www.w3.org/1999/xlink" xml:space="preserve" xmlns:serif="http://www.serif.com/" style="fill-rule:evenodd;clip-rule:evenodd;stroke-linejoin:round;stroke-miterlimit:2;">
    <g id="Artboard1" transform="matrix(0.970779,0,0,0.970779,-46.5974,-24.2695)">
        <rect x="48" y="25" width="616" height="616" style="fill:none;"/>
        <g transform="matrix(1.0301,0,0,1.0301,-4.57363,44.5637)">
            <g>
                <path d="M342.26,479.89C331.291,479.89 320.834,475.792 312.819,468.347C312.784,468.316 312.753,468.284 312.721,468.249L209.911,364.339C201.693,356.121 197.274,345.37 197.485,334.081C197.685,323.335 202.114,313.393 209.958,306.081L312.728,202.221C320.767,194.182 331.251,189.764 342.267,189.764C353.306,189.764 363.513,194.198 371.017,202.252L474.837,306.072C482.689,313.385 487.118,323.326 487.317,334.076C487.524,345.365 483.11,356.115 474.879,364.346L370.969,468.256C363.473,475.76 353.278,479.889 342.262,479.889L342.26,479.89ZM317.334,463.585C324.123,469.866 332.975,473.327 342.26,473.327C351.522,473.327 360.069,469.882 366.326,463.624L470.236,359.714C477.193,352.757 480.927,343.694 480.752,334.206C480.584,325.233 476.881,316.936 470.322,310.847C470.291,310.82 470.263,310.792 470.236,310.761L366.246,206.771C359.996,200.041 351.48,196.333 342.266,196.333C333.004,196.333 324.164,200.071 317.379,206.856L214.579,310.746C214.548,310.777 214.513,310.813 214.481,310.844C207.923,316.934 204.215,325.231 204.051,334.203C203.876,343.695 207.61,352.754 214.567,359.711L317.334,463.585Z" style="fill:rgb(241,245,249);fill-rule:nonzero;"/>
                <path d="M342.4,379.54C308.052,379.54 281.15,359.841 281.15,334.696C281.15,310.571 308.627,290.946 342.4,290.946C358.365,290.946 373.552,295.43 385.162,303.571C397.084,311.93 403.65,322.985 403.65,334.696C403.65,359.423 376.173,379.54 342.4,379.54ZM342.4,297.509C312.244,297.509 287.712,314.193 287.712,334.697C287.712,356.162 311.732,372.978 342.4,372.978C372.556,372.978 397.088,355.806 397.088,334.697C397.088,314.537 372.045,297.509 342.4,297.509Z" style="fill:rgb(241,245,249);fill-rule:nonzero;"/>
                <path d="M342.26,515.71C331.244,515.71 320.756,511.292 312.733,503.265L209.973,400.505C196.371,387.993 192.969,367.95 201.7,351.735C202.246,350.719 203.286,350.067 204.434,350.012C205.59,349.965 206.68,350.512 207.317,351.469C209.325,354.481 211.297,356.454 214.563,359.719L317.333,463.589C324.122,469.871 332.974,473.332 342.259,473.332C351.521,473.332 360.068,469.886 366.325,463.628L470.235,359.718C473.305,356.648 475.157,354.797 476.004,352.25C476.418,351.007 477.532,350.129 478.836,350.019C480.145,349.914 481.387,350.582 482.008,351.734C490.579,367.652 487.645,387.683 474.875,400.453L371.005,503.233C363.505,511.28 353.302,515.713 342.263,515.713L342.26,515.71ZM205.36,359.62C200.93,372.194 204.341,386.432 214.462,395.706C214.497,395.737 214.532,395.772 214.563,395.804L317.373,498.614C324.158,505.399 332.998,509.137 342.26,509.137C351.475,509.137 359.99,505.43 366.24,498.703C366.271,498.667 366.303,498.636 366.338,498.601L470.248,395.791C479.521,386.518 482.619,372.662 478.623,360.424C477.541,361.682 476.287,362.936 474.873,364.35L370.963,468.26C363.467,475.756 353.272,479.885 342.256,479.885C331.287,479.885 320.83,475.787 312.815,468.342C312.78,468.311 312.748,468.279 312.717,468.244L209.907,364.334C208.188,362.615 206.716,361.143 205.36,359.619L205.36,359.62Z" style="fill:rgb(241,245,249);fill-rule:nonzero;"/>
                <path d="M342.4,337.98C340.587,337.98 339.119,336.511 339.119,334.699L339.119,105.009C339.119,103.196 340.588,101.728 342.4,101.728C344.212,101.728 345.681,103.196 345.681,105.009L345.681,334.699C345.681,336.511 344.212,337.98 342.4,337.98Z" style="fill:rgb(241,245,249);fill-rule:nonzero;"/>
                <path d="M342.4,108.29C319.873,108.29 300.838,89.255 300.838,66.728C300.838,44.201 319.873,25.166 342.4,25.166C364.927,25.166 383.962,44.201 383.962,66.728C383.962,89.255 364.927,108.29 342.4,108.29ZM342.4,31.728C323.427,31.728 307.4,47.755 307.4,66.728C307.4,85.701 323.427,101.728 342.4,101.728C361.373,101.728 377.4,85.701 377.4,66.728C377.4,47.755 361.373,31.728 342.4,31.728Z" style="fill:rgb(241,245,249);fill-rule:nonzero;"/>
                <path d="M329.27,65.633C321.164,65.633 315.051,59.988 315.051,52.508C315.051,45.027 321.164,39.383 329.27,39.383C336.508,39.383 342.395,45.27 342.395,52.508C342.395,59.742 336.508,65.633 329.27,65.633ZM329.27,45.945C324.762,45.945 321.614,48.644 321.614,52.507C321.614,56.371 324.762,59.07 329.27,59.07C332.95,59.07 335.833,56.187 335.833,52.507C335.833,48.828 332.95,45.945 329.27,45.945Z" style="fill:rgb(241,245,249);fill-rule:nonzero;"/>
                <path d="M247.24,345.63C232.767,345.63 220.99,336.798 220.99,325.942C220.99,315.344 232.275,307.348 247.24,307.348C261.345,307.348 272.396,315.516 272.396,325.942C272.396,336.614 260.876,345.63 247.24,345.63ZM247.24,313.911C236.017,313.911 227.552,319.083 227.552,325.942C227.552,332.282 235.462,339.067 247.24,339.067C257.146,339.067 265.834,332.934 265.834,325.942C265.834,319.305 257.494,313.911 247.24,313.911Z" style="fill:rgb(241,245,249);fill-rule:nonzero;"/>
                <path d="M420.05,534.85L236.3,534.85C234.488,534.85 233.019,533.381 233.019,531.569C233.019,529.756 234.488,528.288 236.3,528.288L420.05,528.288C421.863,528.288 423.331,529.756 423.331,531.569C423.331,533.381 421.862,534.85 420.05,534.85Z" style="fill:rgb(241,245,249);fill-rule:nonzero;"/>
                <path d="M470.37,523.91L343.49,523.91C341.678,523.91 340.209,522.441 340.209,520.629C340.209,518.816 341.678,517.348 343.49,517.348L470.37,517.348C472.183,517.348 473.651,518.816 473.651,520.629C473.651,522.441 472.182,523.91 470.37,523.91Z" style="fill:rgb(241,245,249);fill-rule:nonzero;"/>
                <path d="M499.9,523.91L483.494,523.91C481.681,523.91 480.213,522.441 480.213,520.629C480.213,518.816 481.682,517.348 483.494,517.348L499.9,517.348C501.712,517.348 503.181,518.816 503.181,520.629C503.181,522.441 501.712,523.91 499.9,523.91Z" style="fill:rgb(241,245,249);fill-rule:nonzero;"/>
                <path d="M288.8,523.91L228.644,523.91C226.832,523.91 225.363,522.441 225.363,520.629C225.363,518.816 226.832,517.348 228.644,517.348L288.8,517.348C290.613,517.348 292.081,518.816 292.081,520.629C292.081,522.441 290.612,523.91 288.8,523.91Z" style="fill:rgb(241,245,249);fill-rule:nonzero;"/>
                <path d="M342.4,365.32C318.482,365.32 299.744,351.867 299.744,334.695C299.744,318.093 319.279,304.07 342.4,304.07C364.541,304.07 383.962,318.382 383.962,334.695C383.962,351.582 365.317,365.32 342.4,365.32ZM342.4,310.632C323.173,310.632 306.306,321.874 306.306,334.694C306.306,347.964 322.497,358.756 342.4,358.756C361.701,358.756 377.4,347.963 377.4,334.694C377.4,322.1 360.716,310.632 342.4,310.632Z" style="fill:rgb(241,245,249);fill-rule:nonzero;"/>
                <path d="M479.12,356.57C478.284,356.57 477.452,356.254 476.811,355.621L356.501,236.401C355.212,235.127 355.205,233.049 356.478,231.76C357.755,230.471 359.83,230.463 361.119,231.741L481.429,350.961C482.718,352.234 482.725,354.312 481.452,355.601C480.807,356.246 479.964,356.57 479.12,356.57L479.12,356.57Z" style="fill:rgb(241,245,249);fill-rule:nonzero;"/>
            </g>
        </g>
    </g>
</svg>
